:SAMPLES-PER-SECOND 30
:FULLY-SPECIFIED
:DEGREES
292
root  44.4972 37.7114 1.78564 11.8258 85.1971 20.1395
RightUpLeg  -15.4278 1.1881 -5.66955
RightLeg  64.5985 1.94918 3.90059
RightFoot  -3.66478 -0.596764 8.51145
RightToes  5.82063e-011 0 -3.6325e-017
Spine  13.1385 1.25175 4.68048
Spine1  11.9877 3.499 -7.50533
HEad  -8.97376 1.09755 -0.636144
LeftShoulder1  1.64463 -2.49494 -21.0299
LeftArm  5.46229 -49.6307 -41.5628
LeftForeArm  -16.0799 -24.5962 -6.03731
LeftHand  -0.0249726 5.17997 -0.22588
RightShoulder  1.02018 1.02997 15.8351
RightArm  6.26972 58.1336 50.2936
RightForeArm  -26.3626 9.28131 6.92762
RightHand  -0.224969 2.60928 -3.47148
LeftUpLeg  -15.2073 6.89421 -2.65141
LeftLeg  21.3632 -3.87827 -1.43705
LeftFoot  4.74569 -1.06299 7.3066
LeftToes  2.58842e-009 -1.78069e-010 3.24654e-012
293
root  45.1332 38.0303 1.78027 9.3632 85.6218 16.9644
RightUpLeg  -17.2298 2.64248 -5.52263
RightLeg  57.9925 1.97906 2.98492
RightFoot  -4.56683 -0.518514 8.22029
RightToes  5.82063e-011 0 -3.6325e-017
Spine  14.2708 1.21449 6.8721
Spine1  11.179 4.37379 -9.35364
HEad  -10.2271 -0.540951 -0.115981
LeftShoulder1  1.87677 -3.66976 -19.7064
LeftArm  6.78488 -51.1788 -43.0637
LeftForeArm  -16.4092 -22.8664 -5.8042
LeftHand  -0.0260119 5.16384 -1.6335
RightShoulder  0.836637 0.179917 16.0755
RightArm  5.26309 59.5159 48.8282
RightForeArm  -25.9943 7.41152 6.80955
RightHand  -0.180447 2.48868 -2.86957
LeftUpLeg  -13.8042 6.92054 -2.24772
LeftLeg  19.3411 -4.28879 -1.7001
LeftFoot  4.72969 -1.08724 7.48566
LeftToes  2.58842e-009 -1.78069e-010 3.24654e-012
294
root  45.7641 38.2702 1.78728 8.84283 85.9777 15.5135
RightUpLeg  -18.1264 4.5131 -5.90814
RightLeg  49.0286 1.96393 2.08794
RightFoot  -4.9955 -0.48118 8.05275
RightToes  5.82063e-011 0 -3.6325e-017
Spine  14.7207 0.774704 9.14525
Spine1  10.5279 5.02292 -12.0939
HEad  -10.6309 -1.21763 0.565822
LeftShoulder1  2.01481 -4.72019 -17.8849
LeftArm  5.89435 -52.0253 -44.1309
LeftForeArm  -15.1985 -21.0541 -6.00267
LeftHand  -0.0321112 5.47191 -1.95755
RightShoulder  0.760215 -0.241215 16.7725
RightArm  4.98602 60.9507 47.9062
RightForeArm  -25.943 5.64897 6.88317
RightHand  -0.134442 2.57485 -2.16499
LeftUpLeg  -12.9012 6.62266 -1.99001
LeftLeg  17.787 -4.32693 -1.86971
LeftFoot  4.34347 -1.04415 7.37798
LeftToes  2.58842e-009 -1.78069e-010 3.24654e-012
295
root  46.3532 38.4175 1.84068 14.736 86.5403 20.4455
RightUpLeg  -18.0903 6.67519 -6.93074
RightLeg  38.6579 2.51986 1.85929
RightFoot  -4.67823 -0.53506 8.63388
RightToes  5.82063e-011 0 -3.6325e-017
Spine  14.7055 0.220682 9.60616
Spine1  10.1914 4.84068 -13.1855
HEad  -11.5384 -1.59592 0.655507
LeftShoulder1  2.08366 -5.06479 -17.7212
LeftArm  4.99942 -53.2998 -43.1723
LeftForeArm  -14.2716 -19.1168 -6.59857
LeftHand  -0.0380444 5.73554 -2.18539
RightShoulder  0.774605 -0.224546 17.448
RightArm  5.3509 62.6147 47.6079
RightForeArm  -25.1198 4.43371 7.07794
RightHand  -0.115778 1.6338 -2.06677
LeftUpLeg  -12.4737 6.11441 -2.11862
LeftLeg  16.8625 -4.40793 -2.03558
LeftFoot  3.79924 -1.00642 7.38767
LeftToes  2.58842e-009 -1.78069e-010 3.24654e-012
296
root  46.9315 38.5079 1.94404 28.5171 87.1807 33.4177
RightUpLeg  -17.2304 10.5201 -8.47427
RightLeg  27.8207 3.7792 2.05468
RightFoot  -4.6713 -0.60534 9.82512
RightToes  5.82063e-011 0 -3.6325e-017
Spine  13.3003 -0.0373752 6.41857
Spine1  11.5565 3.22513 -9.32428
HEad  -11.7581 0.598039 -0.898687
LeftShoulder1  2.01604 -4.52375 -18.5806
LeftArm  1.85894 -53.812 -41.1227
LeftForeArm  -13.3376 -17.7326 -6.96434
LeftHand  -0.0435 5.81906 -1.29423
RightShoulder  1.10163 1.56369 14.909
RightArm  5.21453 63.558 49.2335
RightForeArm  -24.0982 3.40792 6.65341
RightHand  -0.112604 1.62023 -2.01412
LeftUpLeg  -12.1658 5.7034 -2.45463
LeftLeg  16.3607 -4.79032 -2.23323
LeftFoot  3.26674 -0.977903 7.46366
LeftToes  2.58842e-009 -1.78069e-010 3.24654e-012
297
root  47.4506 38.6007 2.06445 53.1863 87.9252 57.3693
RightUpLeg  -15.917 15.71 -9.68309
RightLeg  17.8221 5.70585 1.37073
RightFoot  -4.08421 -0.634294 9.4131
RightToes  5.82063e-011 0 -3.6325e-017
Spine  13.3741 -0.56344 6.74687
Spine1  11.388 2.87743 -9.67178
HEad  -12.2782 0.30376 -0.871457
LeftShoulder1  2.09418 -5.1531 -17.5649
LeftArm  -0.714884 -53.5961 -41.2617
LeftForeArm  -11.3486 -17.5018 -6.63603
LeftHand  -0.0592035 6.5825 -1.93739
RightShoulder  1.01207 1.11397 15.2357
RightArm  5.41862 64.735 49.1587
RightForeArm  -23.8867 2.7707 6.74126
RightHand  -0.0885972 1.65455 -1.60617
LeftUpLeg  -11.8551 5.42351 -2.69326
LeftLeg  15.7919 -5.65259 -2.44839
LeftFoot  2.90009 -0.976998 7.66699
LeftToes  2.58842e-009 -1.78069e-010 3.24654e-012
298
root  47.9553 38.7138 2.22598 98.6828 87.9369 102.536
RightUpLeg  -13.7907 12.9832 -8.37605
RightLeg  10.8126 15.029 -0.0531889
RightFoot  -1.67921 -0.671993 8.41644
RightToes  5.82063e-011 0 -3.6325e-017
Spine  13.2268 -0.939809 6.21494
Spine1  11.8998 2.05771 -8.22606
HEad  -12.2237 0.387642 -1.682
LeftShoulder1  2.12719 -5.0625 -18.3033
LeftArm  -0.91605 -54.3747 -40.9687
LeftForeArm  -10.6876 -17.2748 -6.68534
LeftHand  -0.0530386 6.2415 -2.23072
RightShoulder  1.0151 1.41892 13.8335
RightArm  4.41017 64.7781 49.1502
RightForeArm  -24.9652 2.44824 6.3593
RightHand  -0.13647 1.46548 -2.46608
LeftUpLeg  -10.9838 4.73742 -2.99759
LeftLeg  14.8271 -6.56645 -2.40174
LeftFoot  2.7993 -0.974127 7.70541
LeftToes  2.58842e-009 -1.78069e-010 3.24654e-012
299
root  48.4022 38.8855 2.41804 135.882 87.2192 139.255
RightUpLeg  -12.5861 3.69447 -5.27839
RightLeg  8.45534 27.4971 -1.32119
RightFoot  3.96665 -0.644676 4.90734
RightToes  5.82063e-011 0 -3.6325e-017
Spine  13.1503 -1.52835 7.31687
Spine1  11.9803 1.65617 -8.69906
HEad  -11.4191 0.486602 -1.3577
LeftShoulder1  2.1666 -5.67629 -16.9826
LeftArm  -2.44506 -54.6088 -41.3845
LeftForeArm  -10.0598 -16.5136 -6.7092
LeftHand  -0.0647697 6.75299 -2.11195
RightShoulder  0.923128 0.688455 15.3952
RightArm  4.97244 65.9823 48.8554
RightForeArm  -24.1573 1.45447 6.63047
RightHand  -0.102315 0.583004 -2.04791
LeftUpLeg  -10.1037 4.22008 -2.84482
LeftLeg  13.3221 -7.85208 -2.35244
LeftFoot  3.00973 -0.955975 7.43164
LeftToes  2.58842e-009 -1.78069e-010 3.24654e-012
300
root  48.8295 38.9038 2.68397 144.774 86.0616 147.673
RightUpLeg  -12.0138 3.49062 -5.23474
RightLeg  8.06549 26.2039 -1.85873
RightFoot  2.60539 -0.963487 8.00176
RightToes  5.82063e-011 0 -3.6325e-017
Spine  11.9318 -1.3401 5.53382
Spine1  14.1017 0.76822 -5.50496
HEad  -10.7845 1.69489 -3.68578
LeftShoulder1  2.21148 -4.95088 -19.6985
LeftArm  -2.43696 -56.1626 -40.3906
LeftForeArm  -10.4103 -17.0131 -6.62599
LeftHand  -0.0684845 6.82535 -2.30755
RightShoulder  0.966033 1.33486 13.0369
RightArm  3.25185 66.5561 48.5237
RightForeArm  -23.8465 0.365994 5.97167
RightHand  -0.0496938 0.715554 -0.998353
LeftUpLeg  -10.2433 2.92585 -3.003
LeftLeg  13.8006 -7.90181 -1.91698
LeftFoot  2.33777 -0.81784 6.69492
LeftToes  2.58842e-009 -1.78069e-010 3.24654e-012
301
root  49.1697 38.9716 2.94057 154.493 85.0941 156.948
RightUpLeg  -12.2037 1.97352 -4.94942
RightLeg  8.69983 26.1841 -0.953337
RightFoot  3.66417 -0.877921 6.84096
RightToes  5.82063e-011 0 -3.6325e-017
Spine  12.3187 -1.9313 7.26969
Spine1  13.837 0.81538 -7.19372
HEad  -10.5367 1.477 -3.49484
LeftShoulder1  2.23589 -5.48957 -18.3496
LeftArm  -3.71273 -56.2957 -40.6925
LeftForeArm  -9.51455 -16.6455 -6.49569
LeftHand  -0.0751525 6.79923 -2.7966
RightShoulder  0.92149 0.937647 14.045
RightArm  3.54432 67.25 48.5357
RightForeArm  -25.8435 -0.751635 6.17982
RightHand  -0.13412 0.880483 -2.58983
LeftUpLeg  -10.3334 1.47131 -2.67382
LeftLeg  13.8828 -7.88551 -1.52
LeftFoot  2.10195 -0.732025 6.09626
LeftToes  2.58842e-009 -1.78069e-010 3.24654e-012
302
root  49.4737 38.9755 3.20006 159.277 83.7236 161.604
RightUpLeg  -12.1771 0.75292 -5.0908
RightLeg  9.70875 25.8126 0.14624
RightFoot  3.336 -0.717915 5.74686
RightToes  5.82063e-011 0 -3.6325e-017
Spine  12.5013 -1.89207 6.3666
Spine1  14.5047 -0.150274 -4.13432
HEad  -10.3855 2.97721 -6.09874
LeftShoulder1  2.24228 -4.51407 -21.5783
LeftArm  -3.55848 -58.6444 -39.9609
LeftForeArm  -8.64168 -16.043 -6.83868
LeftHand  -0.106751 7.56774 -3.2534
RightShoulder  0.951361 1.81822 10.6385
RightArm  1.35424 67.0278 47.8193
RightForeArm  -25.4308 -1.6819 5.36229
RightHand  -0.08651 0.943239 -1.68621
LeftUpLeg  -10.5079 0.184133 -2.37778
LeftLeg  14.6604 -8.02436 -1.64286
LeftFoot  1.58614 -0.651023 5.65665
LeftToes  2.58842e-009 -1.78069e-010 3.24654e-012
